# xmcd CD database file
#
# Track frame offsets:
#	150
#	18702
#	47779
#	65138
#	79789
#	100975
#	118141
#	134693
#	151421
#	168989
#	184815
#	200820
#	219071
#	239931
#	258340
#	283391
#	306083
#
# Disc length: 4271 seconds
#
# Revision: 3
# Processed by: cddbd v1.5.2PL0 Copyright (c) Steve Scherf et al.
# Submitted via: CDex 1.51
#
DISCID=0d10ad11
DTITLE=Capus, Alex - Léon and Louise
DYEAR=2011
DGENRE=Hörbuch
TTITLE0=32 Léon and Louise
TTITLE1=33 Léon and Louise
TTITLE2=34 Léon and Louise
TTITLE3=35 Léon and Louise
TTITLE4=36 Léon and Louise
TTITLE5=37 Léon and Louise
TTITLE6=38 Léon and Louise
TTITLE7=39 Léon and Louise
TTITLE8=40 Léon and Louise
TTITLE9=41 Léon and Louise
TTITLE10=42 Léon and Louise
TTITLE11=43 Léon and Louise
TTITLE12=44 Léon and Louise
TTITLE13=45 Léon and Louise
TTITLE14=46 Léon and Louise
TTITLE15=47 Léon and Louise
TTITLE16=48 Léon and Louise
EXTD=YEAR: 2011
EXTT0=
EXTT1=
EXTT2=
EXTT3=
EXTT4=
EXTT5=
EXTT6=
EXTT7=
EXTT8=
EXTT9=
EXTT10=
EXTT11=
EXTT12=
EXTT13=
EXTT14=
EXTT15=
EXTT16=
PLAYORDER=
